HIERARCHY
ROOT Hips
{
	OFFSET 0.00000 0.00000 0.00000
	CHANNELS 6 Xposition Yposition Zposition Zrotation Yrotation Xrotation 
	JOINT LHipJoint
	{
		OFFSET 0 0 0
		CHANNELS 3 Zrotation Yrotation Xrotation
		JOINT LeftUpLeg
		{
			OFFSET 1.55766 -1.60504 1.11378
			CHANNELS 3 Zrotation Yrotation Xrotation
			JOINT LeftLeg
			{
				OFFSET 2.29047 -6.29302 0.00000
				CHANNELS 3 Zrotation Yrotation Xrotation
				JOINT LeftFoot
				{
					OFFSET 2.52265 -6.93093 0.00000
					CHANNELS 3 Zrotation Yrotation Xrotation
					JOINT LeftToeBase
					{
						OFFSET 0.17633 -0.48446 2.02656
						CHANNELS 3 Zrotation Yrotation Xrotation
						End Site
						{
							OFFSET 0.00000 -0.00000 1.04989
						}
					}
				}
			}
		}
	}
	JOINT RHipJoint
	{
		OFFSET 0 0 0
		CHANNELS 3 Zrotation Yrotation Xrotation
		JOINT RightUpLeg
		{
			OFFSET -1.48599 -1.60504 1.11378
			CHANNELS 3 Zrotation Yrotation Xrotation
			JOINT RightLeg
			{
				OFFSET -2.27280 -6.24448 0.00000
				CHANNELS 3 Zrotation Yrotation Xrotation
				JOINT RightFoot
				{
					OFFSET -2.50834 -6.89161 0.00000
					CHANNELS 3 Zrotation Yrotation Xrotation
					JOINT RightToeBase
					{
						OFFSET -0.26967 -0.74090 2.08741
						CHANNELS 3 Zrotation Yrotation Xrotation
						End Site
						{
							OFFSET -0.00000 -0.00000 1.10614
						}
					}
				}
			}
		}
	}
	JOINT LowerBack
	{
		OFFSET 0 0 0
		CHANNELS 3 Zrotation Yrotation Xrotation
		JOINT Spine
		{
			OFFSET 0.06481 2.02437 -0.08472
			CHANNELS 3 Zrotation Yrotation Xrotation
			JOINT Spine1
			{
				OFFSET 0.00015 1.96711 0.18069
				CHANNELS 3 Zrotation Yrotation Xrotation
				JOINT Neck
				{
					OFFSET 0 0 0
					CHANNELS 3 Zrotation Yrotation Xrotation
					JOINT Neck1
					{
						OFFSET -0.29961 1.68293 -0.13041
						CHANNELS 3 Zrotation Yrotation Xrotation
						JOINT Head
						{
							OFFSET 0.59697 1.61501 -0.14669
							CHANNELS 3 Zrotation Yrotation Xrotation
							End Site
							{
								OFFSET 0.22973 1.74906 -0.10148
							}
						}
					}
				}
				JOINT LeftShoulder
				{
					OFFSET 0 0 0
					CHANNELS 3 Zrotation Yrotation Xrotation
					JOINT LeftArm
					{
						OFFSET 3.37968 1.02893 0.31147
						CHANNELS 3 Zrotation Yrotation Xrotation
						JOINT LeftForeArm
						{
							OFFSET 5.19807 -0.00000 -0.00000
							CHANNELS 3 Zrotation Yrotation Xrotation
							JOINT LeftHand
							{
								OFFSET 3.09370 -0.00000 -0.00000
								CHANNELS 3 Zrotation Yrotation Xrotation
								JOINT LeftFingerBase
								{
									OFFSET 0 0 0
									CHANNELS 3 Zrotation Yrotation Xrotation
									JOINT LeftHandIndex1
									{
										OFFSET 0.67263 -0.00000 -0.00000
										CHANNELS 3 Zrotation Yrotation Xrotation
										End Site
										{
											OFFSET 0.54229 -0.00000 -0.00000
										}
									}
								}
								JOINT LThumb
								{
									OFFSET 0 0 0
									CHANNELS 3 Zrotation Yrotation Xrotation
									End Site
									{
										OFFSET 0.55057 -0.00000 0.55057
									}
								}
							}
						}
					}
				}
				JOINT RightShoulder
				{
					OFFSET 0 0 0
					CHANNELS 3 Zrotation Yrotation Xrotation
					JOINT RightArm
					{
						OFFSET -3.38254 0.96355 -0.16120
						CHANNELS 3 Zrotation Yrotation Xrotation
						JOINT RightForeArm
						{
							OFFSET -5.45222 -0.00000 -0.00000
							CHANNELS 3 Zrotation Yrotation Xrotation
							JOINT RightHand
							{
								OFFSET -3.01284 -0.00000 -0.00000
								CHANNELS 3 Zrotation Yrotation Xrotation
								JOINT RightFingerBase
								{
									OFFSET 0 0 0
									CHANNELS 3 Zrotation Yrotation Xrotation
									JOINT RightHandIndex1
									{
										OFFSET -0.62230 -0.00000 -0.00000
										CHANNELS 3 Zrotation Yrotation Xrotation
										End Site
										{
											OFFSET -0.50171 -0.00000 -0.00000
										}
									}
								}
								JOINT RThumb
								{
									OFFSET 0 0 0
									CHANNELS 3 Zrotation Yrotation Xrotation
									End Site
									{
										OFFSET -0.50937 -0.00000 0.50937
									}
								}
							}
						}
					}
				}
			}
		}
	}
}
MOTION
Frames: 9
Frame Time: 0.0253165
0.00 0.00 0.00 0 0 0 0 0 0 -21 0 0 0 0 0 0 0 0 0 0 0 0 0 0 21 0 0 0 0 0 0 0 0 0 0 0 0 0 0 0 0 0 0 0 0 0 0 -16 0 0 21 0 0 11 0 0 0 -8 0 0 0 0 0 0 0 0 0 0 0 0 0 0 0 0 0 0 0 0 8 0 0 0 0 0 0 0 0 0 0 0 0 0 0 0 0 0
0.00 0.00 0.00 -70.6811 -79.7937 94.5013 0.0000 0.0000 0.0000 -4.3518 -13.9122 -49.4093 6.5974 14.9832 47.3346 1.1940 -5.8237 -19.5469 2.0148 -8.8968 -25.4732 0.0000 0.0000 0.0000 30.5208 10.8549 -41.6310 -4.5799 -12.8944 38.9746 -1.1891 5.5566 -19.5204 -0.9032 6.0565 -16.9485 7.7331 2.9051 4.3829 -1.0405 4.2884 -1.2870 -5.6985 1.9683 -3.1554 -34.6602 -6.1589 22.8245 34.7936 -17.3751 1.1449 18.8775 -10.8885 3.0842 0.0000 -0.0000 0.0000 -81.6909 -1.4778 45.2298 22.4433 -33.4744 -6.8287 -0.0000 0.0000 -41.1372 19.4432 -13.9584 -4.8670 -7.1250 0.0000 -0.0000 -5.4554 15.2589 3.8450 0.0000 -0.0000 0.0000 86.8678 4.5427 48.1380 -20.6652 31.4354 -5.8743 0.0000 0.0000 13.4941 -8.6191 0.7386 -0.1120 7.1250 -0.0000 -0.0000 13.9355 -29.0966 5.5504
0.00 0.00 0.00 -64.6820 -79.5221 91.2666 0.0000 0.0000 0.0000 -2.6393 -12.5897 -62.6297 10.5456 17.7055 61.2970 1.4656 -10.4994 -21.8122 1.7700 -8.3695 -23.8422 0.0000 0.0000 0.0000 28.7650 12.4383 -54.8755 -8.7919 -16.6719 55.3676 -1.8069 7.7643 -24.1034 -0.6689 5.2304 -14.5668 8.1823 2.2699 9.6313 -0.0805 3.8557 0.4981 -5.1748 1.7252 -4.3348 -35.6057 -6.0351 23.8407 36.7169 -16.6678 -3.7449 20.3032 -10.6175 1.6523 0.0000 0.0000 0.0000 -81.7353 -7.8549 45.3946 23.0425 -34.1352 -7.1621 -0.0000 0.0000 -41.6289 20.1218 -14.6703 -5.3012 -7.1250 0.0000 -0.0000 -5.0191 14.4432 3.6228 0.0000 0.0000 0.0000 82.9514 12.3353 48.5520 -20.3290 31.0367 -5.7000 0.0000 0.0000 14.3200 -9.0149 0.5367 -0.0851 7.1250 -0.0000 -0.0000 13.6597 -29.3009 5.3661
0.00 0.00 0.00 -58.9942 -79.4055 87.7792 0.0000 0.0000 0.0000 -0.9916 -11.7437 -75.7814 15.5994 19.5292 77.0357 1.8852 -14.2357 -25.1279 1.3064 -7.2406 -20.4302 0.0000 0.0000 0.0000 26.4224 13.0554 -68.3836 -14.3548 -19.2181 73.2852 -2.6092 9.5934 -29.0891 -0.5893 4.9150 -13.6664 9.3200 1.6011 14.0597 0.5989 3.4142 2.1227 -5.2247 1.4580 -5.1026 -35.3469 -6.5124 23.6713 38.0704 -16.1105 -8.6709 21.1691 -10.3475 0.3190 0.0000 -0.0000 0.0000 -80.4666 -15.2431 46.0811 23.0547 -34.1485 -7.1690 -0.0000 0.0000 -41.9130 19.4887 -14.9686 -5.2228 -7.1250 0.0000 -0.0000 -5.4602 14.1971 3.9727 0.0000 -0.0000 0.0000 79.0780 19.8819 43.5935 -20.1226 30.7898 -5.5940 0.0000 0.0000 14.4385 -9.8661 0.1258 -0.0219 7.1250 -0.0000 -0.0000 13.0595 -29.7194 4.9847
0.00 0.00 0.00 -56.4982 -80.4862 86.4695 0.0000 0.0000 0.0000 -0.4081 -10.6786 -87.4583 20.9901 19.9765 92.8960 2.4599 -17.1722 -28.9694 1.0350 -6.4709 -18.1569 0.0000 0.0000 0.0000 22.7573 13.7858 -80.4446 -20.4277 -19.9956 91.2505 -3.5399 10.1766 -34.0817 -0.5335 4.6802 -12.9986 9.2845 1.2612 18.0449 0.7634 3.2268 3.3435 -5.1552 1.3139 -5.9923 -34.7674 -7.1099 23.4570 39.2246 -15.9937 -12.0062 21.8425 -10.3800 -0.4422 -0.0000 0.0000 0.0000 -78.4510 -22.7319 47.4688 22.5358 -33.5773 -6.8798 -0.0000 0.0000 -41.9149 19.4106 -15.1260 -5.2534 -7.1250 0.0000 -0.0000 -5.5192 14.0407 4.0344 -0.0000 0.0000 0.0000 75.0362 26.1683 38.5503 -19.1782 29.6395 -5.1187 0.0000 0.0000 15.9959 -12.4160 -0.2513 0.0553 7.1250 -0.0000 -0.0000 11.1301 -30.1363 4.1073
0.00 0.00 0.00 -61.8970 -81.5079 90.3863 0.0000 0.0000 0.0000 0.1586 -8.1188 -96.1790 26.2570 19.0342 108.5820 2.7871 -19.8533 -31.2271 0.9915 -6.3375 -17.7667 0.0000 0.0000 0.0000 21.3571 13.0725 -89.3846 -26.1317 -19.0736 108.1981 -4.1266 10.5057 -36.9348 -0.5514 4.7571 -13.2170 9.5079 1.0917 23.9184 0.4085 3.4452 4.3985 -5.9848 1.2726 -7.8592 -33.7265 -7.6111 23.3385 40.2191 -15.8917 -14.0750 22.3441 -10.4791 -0.9545 0.0000 -0.0000 0.0000 -74.5204 -28.8587 49.2120 23.4730 -34.6020 -7.4052 -0.0000 0.0000 -42.8674 18.8397 -15.1904 -5.1089 -7.1250 0.0000 -0.0000 -5.9074 14.0334 4.3221 0.0000 -0.0000 0.0000 70.9043 30.6800 34.9663 -17.6563 27.7149 -4.3882 0.0000 0.0000 18.3179 -15.3806 -0.0851 0.0234 7.1250 -0.0000 -0.0000 8.7993 -30.0078 3.2536
0.00 0.00 0.00 -77.9299 -81.8997 102.7620 0.0000 0.0000 0.0000 -0.3226 -0.6268 -104.0373 31.2928 16.6155 124.9283 2.3892 -25.1590 -30.8436 1.0956 -6.6514 -18.6865 0.0000 0.0000 0.0000 22.1151 10.9307 -96.9913 -31.3382 -16.5851 125.0869 -4.0291 11.8958 -36.4406 -0.6081 4.9913 -13.8837 9.1434 1.1746 29.8040 0.2106 3.7048 5.8738 -6.3356 1.2664 -9.1120 -32.8500 -8.1559 22.2861 40.7939 -15.7769 -15.6257 22.4738 -10.4785 -1.2089 0.0000 -0.0000 0.0000 -70.0865 -33.3043 49.1989 25.3604 -36.5701 -8.5037 -0.0000 0.0000 -43.9343 21.2726 -16.1499 -6.1807 -7.1250 0.0000 -0.0000 -4.3162 12.7536 3.2664 0.0000 -0.0000 0.0000 67.3805 34.5820 29.4086 -15.3771 24.6688 -3.3818 0.0000 0.0000 25.5165 -18.9299 1.1352 -0.3893 7.1250 -0.0000 -0.0000 5.9442 -28.7589 2.3627
0.00 0.00 0.00 -83.3044 -81.2024 102.2200 0.0000 0.0000 0.0000 -1.0700 11.0432 -110.8119 35.1763 13.1824 139.9448 1.1743 -32.7390 -28.7635 0.9249 -6.1268 -17.1528 0.0000 0.0000 0.0000 24.6033 6.3074 -102.3980 -35.2601 -13.0848 140.3134 -3.5928 13.4948 -34.3658 -0.6721 5.2425 -14.6015 9.4073 0.8902 36.7922 0.6919 3.8815 6.4313 -5.6548 1.1743 -10.4554 -32.8535 -8.4807 21.1699 40.2635 -15.8167 -16.3015 21.9938 -10.3578 -1.2319 -0.0000 -0.0000 0.0000 -67.8293 -35.7872 48.7421 25.4518 -36.6622 -8.5582 -0.0000 0.0000 -32.2133 25.2019 -17.3588 -7.9925 -7.1250 0.0000 -0.0000 -1.7978 10.9283 1.4251 -0.0000 -0.0000 0.0000 63.1350 36.5933 19.3601 -13.2509 21.6537 -2.5451 0.0000 0.0000 38.6196 -26.0710 2.8653 -1.4010 7.1250 -0.0000 -0.0000 0.4047 -26.7905 0.1789
0.00 0.00 0.00 -82.6535 -79.4359 90.5126 0.0000 0.0000 0.0000 -0.8890 40.8020 -120.3842 37.9794 8.9089 154.4892 -2.3547 -51.8837 -30.4985 1.1180 -6.7168 -18.8791 0.0000 0.0000 0.0000 27.1423 5.4981 -104.1637 -38.1088 -8.6357 155.3377 -3.0640 13.6967 -31.7081 -0.7748 5.6203 -15.6865 8.5834 0.7748 46.8667 3.6319 4.3301 6.9749 -2.2792 0.9917 -13.2362 -33.6887 -8.5162 19.7928 39.4258 -15.6879 -16.9874 21.5418 -10.0418 -1.2482 -0.0000 -0.0000 0.0000 -68.8104 -32.9867 46.3397 25.6692 -36.8801 -8.6883 -0.0000 0.0000 -28.4591 27.8203 -20.5051 -10.4727 -7.1250 0.0000 -0.0000 -0.4433 7.0586 0.3854 -0.0000 -0.0000 0.0000 54.8616 34.9766 13.3940 -13.6246 22.1955 -2.6846 0.0000 0.0000 37.4233 -34.9355 6.6709 -4.6392 7.1250 -0.0000 -0.0000 -5.9520 -21.8764 -3.3232
